<svg fill="none" height="21" viewBox="0 0 173 21" width="173" xmlns="http://www.w3.org/2000/svg">
<path d="M16.1546 11.4261H3.27104C3.50288 13.2808 5.12571 14.2413 8.20584 14.2413C11.286 14.2413 12.5445 13.5126 12.7764 12.5522H16.0883C15.9559 15.003 13.0745 16.5265 8.0734 16.5265C3.07233 16.5265 -0.0078125 14.3738 -0.0078125 10.565C-0.0078125 6.75622 2.87361 4.57031 8.0734 4.57031C13.2732 4.57031 16.1546 6.78934 16.1546 10.4987V11.393V11.4261ZM3.23789 9.63764H12.8426C12.5445 7.78294 10.9879 6.88869 8.10651 6.88869C5.2251 6.88869 3.53597 7.8823 3.23789 9.63764Z" fill="white"></path>
<path d="M33.1147 10.2009V16.2287H29.8027V10.9295C29.8027 8.47867 28.3785 7.3195 25.9608 7.3195C23.5431 7.3195 21.4565 8.97546 21.4565 10.8633V16.2287H18.1445V4.96799H21.3241V7.35261C22.4501 5.63038 24.5035 4.66992 27.0537 4.66992C29.6039 4.66992 33.0815 6.78958 33.0815 10.234L33.1147 10.2009Z" fill="white"></path>
<path d="M39.6347 13.6456H48.2789V16.229H34.9648V13.7781L43.576 7.55159H35.0973V4.96826H48.1465V7.48537L39.6347 13.6456Z" fill="white"></path>
<path d="M62.229 4.93408H65.839L58.354 18.1488C57.3935 19.9373 56.6318 20.5003 54.6115 20.5003H51.0677V18.0164H54.0816C55.042 18.0164 55.307 17.8508 55.7707 17.0228L56.2343 16.1948L49.2461 4.96719H52.9224L57.8572 13.0815L62.1959 4.96719L62.229 4.93408Z" fill="white"></path>
<path d="M93.0562 10.2009V16.2287H89.7442V10.9295C89.7442 8.47867 88.3532 7.3195 86.1011 7.3195C83.8489 7.3195 81.8286 8.97546 81.8286 10.8633V16.2287H78.5166V10.9295C78.5166 8.47867 77.1587 7.3195 74.8735 7.3195C72.5882 7.3195 70.601 8.97546 70.601 10.8633V16.2287H67.2891V4.96799H70.4685V7.35261C71.5615 5.63038 73.5156 4.66992 75.9996 4.66992C78.4835 4.66992 80.3382 5.76286 81.2324 7.61756C82.3254 5.76286 84.445 4.66992 87.194 4.66992C89.9429 4.66992 93.0231 6.78958 93.0231 10.234H93.0562V10.2009Z" fill="white"></path>
<path d="M111.045 11.4261H98.1617C98.3935 13.2808 100.016 14.2413 103.096 14.2413C106.177 14.2413 107.435 13.5126 107.667 12.5522H110.979C110.846 15.003 107.965 16.5265 102.964 16.5265C97.963 16.5265 94.8828 14.3738 94.8828 10.565C94.8828 6.75622 97.7642 4.57031 102.964 4.57031C108.164 4.57031 111.045 6.78934 111.045 10.4987V11.393V11.4261ZM98.1617 9.63764H107.766C107.468 7.78294 105.912 6.88869 103.03 6.88869C100.149 6.88869 98.4597 7.8823 98.1617 9.63764Z" fill="white"></path>
<path d="M117.392 16V0.743879H119.854V6.82453C121.031 5.23354 123.167 4.25279 126.088 4.25279C130.403 4.25279 133.302 6.38864 133.302 10.2681C133.302 14.1693 130.381 16.3051 126.109 16.3051C123.124 16.3051 120.966 15.2808 119.789 13.6026V16H117.392ZM125.412 14.3872C128.943 14.3872 130.817 12.8834 130.817 10.2681C130.817 7.65272 128.943 6.1707 125.412 6.1707C121.968 6.1707 119.854 7.63093 119.854 10.2245C119.854 12.8616 121.968 14.3872 125.412 14.3872ZM135.132 16V0.743879H137.595V16H135.132ZM153.791 4.6015V16H151.393V13.5372C150.303 15.2808 148.277 16.3051 145.705 16.3051C142.152 16.3051 139.777 14.2782 139.777 10.7693V4.6015H142.239V10.2463C142.239 13.0142 143.787 14.3218 146.446 14.3218C149.432 14.3218 151.11 12.6219 151.328 10.595V4.6015H153.791ZM163.591 16.3269C158.491 16.3269 155.636 14.1693 155.636 10.3116C155.636 6.47582 158.491 4.27458 163.591 4.27458C168.691 4.27458 171.546 6.47582 171.546 10.2681V11.0091H158.055C158.273 13.2321 160.147 14.5398 163.656 14.5398C167.274 14.5398 168.778 13.559 168.996 12.4039H171.459C171.306 14.7359 168.473 16.3269 163.591 16.3269ZM158.055 9.48346H169.061C168.778 7.28222 166.925 6.06173 163.613 6.06173C160.213 6.06173 158.317 7.39119 158.055 9.48346Z" fill="#4A9CFF"></path>
</svg>